<svg xmlns="http://www.w3.org/2000/svg"  viewBox="0 0 48 48" width="48px" height="48px"><path fill="#3dd9eb" d="M24,4C12.954,4,4,12.954,4,24s8.954,20,20,20s20-8.954,20-20S35.046,4,24,4z"/><path fill="#c2ffff" d="M37.844,15.566c-1.068,0.473-2.42,0.918-3.632,1.065C35.445,15.9,37.4,14.378,37.844,13 c-1.151,0.677-3.233,1.399-4.592,1.661C32.168,13.511,30.621,13,28.907,13c-3.293,0-5.589,2.79-5.589,6.053v2.421 c-4.842,0-9.563-3.688-12.501-7.263c-0.517,0.873-0.807,1.894-0.807,2.974c0,2.202,2.023,4.437,3.624,5.499 c-0.977-0.03-2.827-0.776-3.632-1.211c0,0.019,0,0.044,0,0.069c0,2.865,2.011,4.811,4.736,5.353 c-0.498,0.137-1.104,0.631-3.438,0.631c0.758,2.342,4.567,3.581,7.176,3.632c-2.041,1.582-5.68,2.421-8.474,2.421 c-0.483,0-0.744,0.027-1.211-0.028C11.428,35.222,15.11,36,18.476,36c10.964,0,16.947-8.374,16.947-16.185 c0-0.257-0.008-1.116-0.022-1.368C36.573,17.622,37.047,16.757,37.844,15.566"/><path fill="#fff" d="M23.318,21.474c0,0-0.161,6.295-4.842,9.684c0,0,9.529-1.687,9.529-10.16 C28.005,20.998,25.752,21.507,23.318,21.474z"/></svg>